# xmcd
#
# Track frame offsets: 
#        150
#        14199
#        28513
#        42196
#        56847
#        70740
#        85130
#        99739
#        115120
#        130469
#        144220
#        157059
#        169300
#        180950
#        193061
#        207207
#        218815
#        230517
#        243806
#        257036
#        271735
#        286339
#        300232
#        313793
#
# Disc length: 4370 seconds
#
# Revision: 2
# Processed by: cddbd v1.5.2PL0 Copyright (c) Steve Scherf et al.
# Submitted via: ExactAudioCopyFreeDBPlugin 1.0
#
DISCID=55111018
DTITLE=Louis Armstrong - Hight Society, Vol. 1
DYEAR=2005
DGENRE=Jazz
TTITLE0=Cornet Chop Suey
TTITLE1=Twelfth Street Rag
TTITLE2=Struttin' with Some Barbecue
TTITLE3=Wild Man Blues
TTITLE4=Fireworks
TTITLE5=West End Blues
TTITLE6=Tiger Rag
TTITLE7=Shine
TTITLE8=Hight Society
TTITLE9=Mississippi Basin
TTITLE10=Swing That Music
TTITLE11=Dipper Mouth Blues
TTITLE12=Alexander's Ragtime Band
TTITLE13=Yours And Mine
TTITLE14=I've Got A Heart Full Of Rhythm
TTITLE15=Satchel Mouth Swing
TTITLE16=Jubilee
TTITLE17=Struttin' With Some Barbecue
TTITLE18=Ain' Misbehavin'
TTITLE19=Rockin' Chair
TTITLE20=Lazybones
TTITLE21=Hear Me Talkin' To Ya
TTITLE22=Do You Know What It Means To Miss New Orleans
TTITLE23=Where The Blue Were Born In New Orleans
EXTD=YEAR: 2005
EXTT0=
EXTT1=
EXTT2=
EXTT3=
EXTT4=
EXTT5=
EXTT6=
EXTT7=
EXTT8=
EXTT9=
EXTT10=
EXTT11=
EXTT12=
EXTT13=
EXTT14=
EXTT15=
EXTT16=
EXTT17=
EXTT18=
EXTT19=
EXTT20=
EXTT21=
EXTT22=
EXTT23=
PLAYORDER=
